<!DOCTYPE svg PUBLIC "-//W3C//DTD SVG 1.1//EN" "http://www.w3.org/Graphics/SVG/1.1/DTD/svg11.dtd">
<!-- Uploaded to: SVG Repo, www.svgrepo.com, Transformed by: SVG Repo Mixer Tools -->
<svg width="256px" height="256px" viewBox="-3.12 -3.12 30.24 30.24" xmlns="http://www.w3.org/2000/svg" fill="#313ef2" stroke="#313ef2" stroke-width="0.00024000000000000003">
<g id="SVGRepo_bgCarrier" stroke-width="0" transform="translate(0,0), scale(1)">
<path transform="translate(-3.12, -3.12), scale(0.9450000000000001)" d="M16,29.678378424296774C17.9806946485274,29.055372989656462,18.718746127083328,26.420257833008655,20.645772315600148,25.64704561694712C22.7720934277475,24.79386704107769,25.42902076730997,26.249443095168274,27.410822755783204,25.099827492990883C29.399998315249093,23.945934585458957,31.231861534409823,21.784275245045347,31.268517866756255,19.48493956669653C31.306972898138802,17.072777192286935,28.28704026485892,15.664814100690556,27.598095351925036,13.352810420568382C26.96929775446141,11.242652798245693,28.62345493459692,8.723183362418338,27.497770544469667,6.830833959309494C26.395090701777576,4.977156711548565,23.958983683388915,4.382818985856399,21.893236595719443,3.7625681139254663C19.983877478317332,3.1892735105023466,17.94856736568465,2.9573772395140145,16,3.3785709751149025C14.189454922567613,3.769930421068469,12.959710313491598,5.4394535875171,11.218002414431725,6.07007969521022C9.240783562883973,6.785978055137308,6.877751893186088,6.17278576548261,5.115205093109669,7.319665718312233C3.245882379217152,8.536024197893848,1.946662956593792,10.525668995297774,1.1621642488739816,12.613360815732614C0.3371983556674113,14.808743077598873,-0.14181016907126665,17.283676972334206,0.5262155295051372,19.53179032951009C1.1883649643217837,21.760128239309104,3.209060839655875,23.239515344474775,4.818232329478342,24.91716215790661C6.318317177420538,26.481080348692632,7.701730394114376,28.242340272663952,9.695555260820544,29.091314394414034C11.66207234842078,29.928660815973128,13.961112819475026,30.319687671549964,16,29.678378424296774" fill="#7ed0ec" strokewidth="0"/>
</g>
<g id="SVGRepo_tracerCarrier" stroke-linecap="round" stroke-linejoin="round" stroke="#CCCCCC" stroke-width="1.2"/>
<g id="SVGRepo_iconCarrier">
<path d="M21.3,19a2.42,2.42,0,0,1-2.5.56l-2.35,2.35a.34.34,0,0,1-.49,0l-1-1a.36.36,0,0,1,0-.49l2.36-2.35a2.39,2.39,0,0,1,3.39-2.91L19.12,16.8l1,1,1.62-1.62A2.39,2.39,0,0,1,21.3,19ZM22,8v5.76A4.47,4.47,0,0,0,19.5,13a4.57,4.57,0,0,0-1.29.19V9.29H16.66V14A4.5,4.5,0,0,0,15,17.5a4.07,4.07,0,0,0,0,.5H4a2,2,0,0,1-2-2V8A2,2,0,0,1,4,6H20A2,2,0,0,1,22,8ZM11,15,9.09,9.27H7L5.17,15h1.7l.29-1.07H9L9.29,15Zm4.77-3.89a1.67,1.67,0,0,0-.55-1.35,2.43,2.43,0,0,0-1.62-.47h-2V15h1.54V13.11h.44a2.75,2.75,0,0,0,1-.17,1.82,1.82,0,0,0,.67-.44,1.63,1.63,0,0,0,.36-.64A2.36,2.36,0,0,0,15.75,11.11Zm-7.3.62-.12-.44-.15-.58c0-.21-.08-.37-.11-.5a4.63,4.63,0,0,1-.1.48c0,.19-.08.38-.13.57s-.08.34-.12.47l-.24.93H8.69Zm5.59-1a.63.63,0,0,0-.5-.17h-.4v1.31h.31a.9.9,0,0,0,.37-.07.59.59,0,0,0,.27-.22.75.75,0,0,0,.11-.42A.57.57,0,0,0,14,10.71Z"/>
<rect width="24" height="24" fill="none"/>
</g>
</svg>