<!DOCTYPE svg PUBLIC "-//W3C//DTD SVG 1.1//EN" "http://www.w3.org/Graphics/SVG/1.1/DTD/svg11.dtd">
<!-- Uploaded to: SVG Repo, www.svgrepo.com, Transformed by: SVG Repo Mixer Tools -->
<svg fill="#2563eb" height="800px" width="800px" version="1.1" id="Layer_1" xmlns="http://www.w3.org/2000/svg" xmlns:xlink="http://www.w3.org/1999/xlink" viewBox="-51.2 -51.2 614.40 614.40" xml:space="preserve" stroke="#2563eb" stroke-width="0.00512" transform="matrix(1, 0, 0, 1, 0, 0)">
<g id="SVGRepo_bgCarrier" stroke-width="0" transform="translate(0,0), scale(1)">
<path transform="translate(-51.2, -51.2), scale(19.2)" d="M16,28.689702366789184C18.34360994984411,28.682132777969315,20.922110067637227,29.201067852667748,22.8646476086643,27.889918434262768C24.79486784889653,26.587082791747513,24.736509818315206,23.713878880628318,26.132974384120185,21.850275488363373C27.785619720162863,19.644794927039857,31.61813751905358,18.751550353156404,31.774188046654064,16C31.92728295982325,13.300564318016372,28.425873876073585,11.928126895252504,26.819019224019584,9.753636338644561C25.420883220203766,7.861596176041916,24.986898881694618,5.137697058995204,22.918774281111034,4.0163314190148665C20.855866933115056,2.8977946452378465,18.289231412664908,3.3715364708459,16,3.887415119343334C13.995774807220936,4.339067572658117,12.13702042915377,5.332929088041403,10.674304370250969,6.775624583627145C9.386727196561447,8.04557836405825,9.561098045360923,10.27812713827983,8.25371147902255,11.527678237193157C6.1694414427529995,13.519745450754137,2.197317281540191,13.36685692718487,1.0229787760310707,15.999999999999996C-0.05421664651571412,18.41532543780256,1.3976650092144973,21.384786893754764,2.8811817390149415,23.57415325442949C4.327461103289928,25.708564902559413,6.707603632759868,26.99767140177733,9.109702520072453,27.93434531449829C11.299668896624674,28.788300322548544,13.649439588701817,28.6972944047949,16,28.689702366789184" fill="#9ee7ff" strokewidth="0"/>
</g>
<g id="SVGRepo_tracerCarrier" stroke-linecap="round" stroke-linejoin="round" stroke="#CCCCCC" stroke-width="1.024"/>
<g id="SVGRepo_iconCarrier"> <g> <g> <path d="M476.231,182.605H443.96v-32.273c0-19.723-16.046-35.769-35.769-35.769h-32.273v-32.27 c0-19.788-16.053-35.769-35.767-35.769H35.769C16.095,46.525,0,62.455,0,82.293v211.332c0,19.723,16.046,35.769,35.769,35.769 H68.04v32.273c0,19.723,16.046,35.769,35.769,35.769h32.271v32.271c0,19.723,16.046,35.769,35.769,35.769h304.383 c19.723,0,35.769-16.046,35.769-35.769V218.373C512,198.651,495.954,182.605,476.231,182.605z M314.332,82.243L187.96,206.09 L61.591,82.246L314.332,82.243z M35.721,293.625l0.007-186.711l139.731,136.939c6.945,6.807,18.059,6.805,25.002,0l139.732-136.94 l-0.04,186.76L35.721,293.625z M103.761,361.665v-32.271h236.392c19.723,0,35.767-16.045,35.767-35.769V150.29l32.319,0.01 c0,0,0.001,0.011,0.001,0.033l-0.048,211.38L103.761,361.665z M476.231,429.753l-304.43-0.048v-32.271h236.392 c19.723,0,35.769-16.046,35.769-35.769V218.331l32.318,0.009c0,0,0.001,0.011,0.001,0.033L476.231,429.753z"/> </g> </g> </g>
</svg>