<!DOCTYPE svg PUBLIC "-//W3C//DTD SVG 1.1//EN" "http://www.w3.org/Graphics/SVG/1.1/DTD/svg11.dtd">
<!-- Uploaded to: SVG Repo, www.svgrepo.com, Transformed by: SVG Repo Mixer Tools -->
<svg height="256px" width="256px" version="1.1" id="_x32_" xmlns="http://www.w3.org/2000/svg" xmlns:xlink="http://www.w3.org/1999/xlink" viewBox="-51.2 -51.2 614.40 614.40" xml:space="preserve" fill="#3d44ff" stroke="#3d44ff">
<g id="SVGRepo_bgCarrier" stroke-width="0" transform="translate(0,0), scale(1)">
<path transform="translate(-51.2, -51.2), scale(19.2)" d="M16,30.11339993774891C18.138400380216932,30.674331935589656,20.674382263320762,30.758527572401277,22.524706061331607,29.5486917427003C24.394652198542104,28.32602582939352,24.53387531471269,25.645538396228932,25.72449804187421,23.755028408633727C26.779620807695114,22.07966972328512,28.449892853899282,20.851084103119817,29.165104038822285,19.004849086528594C29.926384990639473,17.0396902910043,30.146985878918304,14.912405055551258,29.96333533149472,12.81295982986491C29.766048659469465,10.55762997931106,29.648605422567428,7.9956367850516745,28.06088994991051,6.381761218707142C26.460543863422565,4.755046929429638,23.86340207953289,4.745259417206403,21.61928701582828,4.331430278151462C19.752972628145713,3.9872699947720776,17.891671130020764,4.309827198387999,16,4.157656142754213C13.940612511358884,3.9919935372768593,11.787018106808153,2.489931190045702,9.92779458904906,3.3909355397780523C8.067483758063116,4.2924668159060495,7.869138558884929,6.887358447116872,6.763226519588757,8.633918950237327C5.772637372348522,10.198350675287228,4.453114698517604,11.497059469073816,3.7187273206081457,13.196879653722775C2.8976104959207696,15.097444661432565,2.1601890416090352,17.07527094533423,2.222166574762449,19.144700570544956C2.2890980124342692,21.379541051097064,2.3793442754481613,24.057150368528696,4.087198824067222,25.500141924853395C5.8729698681767655,27.008966280102385,8.758773034213279,25.665320598870522,10.938860613268794,26.509564227582334C12.894660988812811,27.266952151786988,13.97130511853396,29.581245209664452,16,30.11339993774891" fill="#7ed0ec" strokewidth="0"/>
</g>
<g id="SVGRepo_tracerCarrier" stroke-linecap="round" stroke-linejoin="round" stroke="#CCCCCC" stroke-width="6.144"/>
<g id="SVGRepo_iconCarrier"> <style type="text/css"> .st0{fill:#3d44ff;} </style> <g> <path class="st0" d="M510.158,392.021l-45.585-57.325V93.613c0-11.662-9.457-21.12-21.119-21.12H68.546 c-11.662,0-21.111,9.458-21.111,21.12v241.082L1.841,392.021C0.649,393.516,0,395.366,0,397.285v25.373 c0,9.311,7.548,16.849,16.85,16.849H495.15c9.302,0,16.85-7.538,16.85-16.849v-25.373C512,395.366,511.351,393.516,510.158,392.021 z M77.226,102.293h357.547v202.604H77.226V102.293z M304.122,419.469h-96.244v-25.478h96.244V419.469z"/> <path class="st0" d="M291.552,186.314c0-9.786-3.994-18.734-10.417-25.14c-6.406-6.414-15.345-10.416-25.14-10.409 c-9.786-0.008-18.734,3.994-25.131,10.409c-6.414,6.407-10.417,15.354-10.417,25.14v12.508h-11.472v43.38 c0,12.571,10.193,22.746,22.762,22.746h48.533c12.561,0,22.754-10.175,22.754-22.746v-43.38h-11.472V186.314z M237.703,186.314 c0-2.55,0.519-4.937,1.435-7.124c1.384-3.268,3.717-6.086,6.639-8.058c2.931-1.98,6.406-3.112,10.218-3.12 c2.55,0,4.936,0.518,7.124,1.435c3.276,1.383,6.086,3.717,8.058,6.648c1.97,2.913,3.112,6.388,3.12,10.218v12.508h-36.594V186.314z "/> </g> </g>
</svg>