<!DOCTYPE svg PUBLIC "-//W3C//DTD SVG 1.1//EN" "http://www.w3.org/Graphics/SVG/1.1/DTD/svg11.dtd">
<!-- Uploaded to: SVG Repo, www.svgrepo.com, Transformed by: SVG Repo Mixer Tools -->
<svg width="256px" height="256px" viewBox="-2.4 -2.4 28.80 28.80" xmlns="http://www.w3.org/2000/svg" fill="#ffffff" stroke="#ffffff" stroke-width="0.00024000000000000003">
<g id="SVGRepo_bgCarrier" stroke-width="0" transform="translate(0,0), scale(1)">
<path transform="translate(-2.4, -2.4), scale(0.8999999999999999)" d="M16,27.703818372505552C19.01098057240794,27.46404121936262,22.20424713649361,28.0740306211298,24.683103530931056,26.348119827854557C27.30037436542611,24.52583758822339,28.71025667844408,21.475862192403984,29.412891469536817,18.365054655393752C30.1481669215527,15.109735609275347,30.687860396829457,11.343714805922362,28.673058818579264,8.683206079637307C26.720934599066318,6.105461662086697,22.839262450387146,6.6600947116837865,19.77251175948639,5.635109126184121C16.838089894905266,4.6543511787269445,14.251163880446708,2.2629956992366527,11.212911973244049,2.847583741546435C7.924866894530643,3.480234322966171,5.289430290651489,5.954365617752946,3.4778771564595488,8.77034900545635C1.589127786955683,11.706330704072444,0.585708175631972,15.175781932018502,1.0567598112180079,18.634896424489316C1.5425273473537962,22.202075470855746,2.995708679711572,25.962282897373676,6.073374611360176,27.830091469248398C8.990259108740164,29.600323193019804,12.598739626728367,27.97467516144482,16,27.703818372505552" fill="#3c96b4" strokewidth="0"/>
</g>
<g id="SVGRepo_tracerCarrier" stroke-linecap="round" stroke-linejoin="round" stroke="#CCCCCC" stroke-width="1.104"/>
<g id="SVGRepo_iconCarrier">
<path d="M21.3,19a2.42,2.42,0,0,1-2.5.56l-2.35,2.35a.34.34,0,0,1-.49,0l-1-1a.36.36,0,0,1,0-.49l2.36-2.35a2.39,2.39,0,0,1,3.39-2.91L19.12,16.8l1,1,1.62-1.62A2.39,2.39,0,0,1,21.3,19ZM22,8v5.76A4.47,4.47,0,0,0,19.5,13a4.57,4.57,0,0,0-1.29.19V9.29H16.66V14A4.5,4.5,0,0,0,15,17.5a4.07,4.07,0,0,0,0,.5H4a2,2,0,0,1-2-2V8A2,2,0,0,1,4,6H20A2,2,0,0,1,22,8ZM11,15,9.09,9.27H7L5.17,15h1.7l.29-1.07H9L9.29,15Zm4.77-3.89a1.67,1.67,0,0,0-.55-1.35,2.43,2.43,0,0,0-1.62-.47h-2V15h1.54V13.11h.44a2.75,2.75,0,0,0,1-.17,1.82,1.82,0,0,0,.67-.44,1.63,1.63,0,0,0,.36-.64A2.36,2.36,0,0,0,15.75,11.11Zm-7.3.62-.12-.44-.15-.58c0-.21-.08-.37-.11-.5a4.63,4.63,0,0,1-.1.48c0,.19-.08.38-.13.57s-.08.34-.12.47l-.24.93H8.69Zm5.59-1a.63.63,0,0,0-.5-.17h-.4v1.31h.31a.9.9,0,0,0,.37-.07.59.59,0,0,0,.27-.22.75.75,0,0,0,.11-.42A.57.57,0,0,0,14,10.71Z"/>
<rect width="24" height="24" fill="none"/>
</g>
</svg>