<?xml version="1.0" encoding="iso-8859-1"?>
<!-- Generator: Adobe Illustrator 19.0.0, SVG Export Plug-In . SVG Version: 6.00 Build 0)  -->
<svg xmlns="http://www.w3.org/2000/svg" xmlns:xlink="http://www.w3.org/1999/xlink" version="1.1" id="Layer_1" x="0px" y="0px" viewBox="0 0 512 512" style="enable-background:new 0 0 512 512;" xml:space="preserve">
<path style="fill:#87A1FF;" d="M256.111,35.243c-121.822,0-220.93,99.108-220.93,220.929s99.108,220.931,220.93,220.931  c121.821,0,220.93-99.11,220.93-220.931C477.041,134.352,377.932,35.243,256.111,35.243z"/>
<path style="fill:#A5BBF9;" d="M313.935,42.936c-66.535,32.371-112.393,100.62-112.393,179.585  c0,108.804,87.674,199.596,200.25,199.596C534.423,305.534,483.176,88.878,313.935,42.936z"/>
<circle style="fill:#EAECEF;" cx="256.113" cy="256.173" r="195.394"/>
<path style="fill:#D3DAE5;" d="M93.132,256.171c0-102.452,78.858-186.478,179.186-194.718  C157.815,52.048,60.718,142.352,60.718,256.171c0,113.784,97.056,204.128,211.601,194.72  C171.99,442.652,93.132,358.625,93.132,256.171z"/>
<path style="fill:#F5F5F5;" d="M281.858,62.471c-48.752,36.393-80.317,94.535-80.317,160.05  c0,97.721,70.227,179.028,162.964,196.235c52.45-35.037,86.998-94.773,86.998-162.584C451.505,156.989,377.6,75.075,281.858,62.471z  "/>
<path style="fill:#61626D;" d="M256.111,504.447c-137.222,0-248.274-111.043-248.274-248.275C7.838,118.944,118.885,7.9,256.111,7.9  c137.222,0,248.274,111.041,248.274,248.273C504.385,393.393,393.342,504.447,256.111,504.447z M256.111,35.243  c-121.822,0-220.93,99.108-220.93,220.929s99.108,220.931,220.93,220.931c121.821,0,220.93-99.11,220.93-220.931  C477.041,134.352,377.932,35.243,256.111,35.243z"/>
<path style="fill:#464856;" d="M35.181,256.171c0-133.977,105.147-240.913,234.602-247.893c-4.537-0.245-9.094-0.38-13.672-0.38  C118.888,7.899,7.838,118.94,7.838,256.171c0,141.969,118.767,255.622,261.946,247.895C140.3,497.086,35.181,390.106,35.181,256.171  z"/>
<path style="fill:#62646D;" d="M354.963,28.298c-14.337,3.396-28.075,8.335-41.029,14.638  c169.379,45.98,220.311,262.754,87.858,379.18c14.85-0.048,29.317-1.721,43.234-4.844C552.394,291.779,509.14,95.224,354.963,28.298  z"/>
<path style="fill:#D82B2B;" d="M260.775,126.007c-0.319-2.956-4.648-2.957-4.967-0.001  c-13.39,124.114-13.196,117.072-11.564,118.329c0.689,0.532,1.607,0.664,2.416,0.354c7.39-2.825,15.794-2.838,23.193-0.032  c1.634,0.622,3.403-0.576,3.403-2.335C273.257,242.322,260.836,126.577,260.775,126.007z"/>
<path style="fill:#FF4848;" d="M260.775,126.007c-0.137-1.269-1.207-2.231-2.482-2.231c-0.001,0-0.001,0-0.001,0  c-0.01,0-0.018,0.002-0.028,0.002v118.787c4.054,0,7.922,0.701,11.59,2.092c1.624,0.618,3.403-0.568,3.403-2.335  C273.257,242.322,260.836,126.577,260.775,126.007z"/>
<g>
	<circle style="fill:#FF8C01;" cx="147.655" cy="339.982" r="15.86"/>
	<circle style="fill:#FF8C01;" cx="364.561" cy="339.982" r="15.86"/>
</g>
<g>
	<path style="fill:#EF7F06;" d="M156.35,326.726c-10.509-6.905-24.552,0.65-24.552,13.258c0,12.624,14.058,20.149,24.552,13.259   C146.801,346.967,146.79,333.005,156.35,326.726z"/>
	<path style="fill:#EF7F06;" d="M373.256,326.726c-10.509-6.905-24.551,0.649-24.551,13.257c0,8.76,7.1,15.86,15.86,15.86   c3.211,0,6.194-0.961,8.692-2.601C363.694,346.959,363.716,332.993,373.256,326.726z"/>
</g>
<circle style="fill:#70727F;" cx="258.301" cy="272.779" r="33.162"/>
<path style="fill:#545766;" d="M268.914,241.364c-21.503-7.265-43.777,8.76-43.777,31.413c0,22.693,22.312,38.671,43.777,31.414  C239.006,294.088,238.89,251.508,268.914,241.364z"/>
<circle style="fill:#C4C8D6;" cx="258.301" cy="272.779" r="11.928"/>
<path style="fill:#A9ADBF;" d="M265.261,263.109c-7.848-5.662-18.891-0.06-18.891,9.669c0,9.721,11.03,15.339,18.891,9.672  C258.64,277.674,258.645,267.879,265.261,263.109z"/>
<path d="M27.571,256.171c0,125.954,102.471,228.424,228.423,228.424s228.423-102.471,228.423-228.424S381.947,27.749,255.994,27.749  S27.571,130.219,27.571,256.171z M469.43,256.171c0,117.689-95.747,213.437-213.436,213.437S42.558,373.861,42.558,256.171  S138.305,42.736,255.994,42.736S469.43,138.483,469.43,256.171z"/>
<path d="M391.448,39.11c-3.506-2.198-8.131-1.136-10.329,2.371c-2.197,3.507-1.136,8.131,2.371,10.329  c15.383,9.64,29.77,21.113,42.76,34.103c94.104,94.102,94.11,246.406,0,340.514c-94.102,94.104-246.403,94.11-340.513,0  c-45.478-45.477-70.523-105.942-70.523-170.257c0-177.661,187.07-295.007,347.038-216.207c3.716,1.828,8.205,0.3,10.034-3.411  c1.828-3.712,0.302-8.204-3.411-10.033C199.102-57.108,0.226,67.303,0.226,256.171c0,68.318,26.604,132.547,74.912,180.856  c99.958,99.958,261.743,99.969,361.71,0C552.684,321.194,531.651,126.967,391.448,39.11z"/>
<path d="M315.058,348.348H196.93c-4.139,0-7.494,3.354-7.494,7.494s3.354,7.494,7.494,7.494h118.129  c4.139,0,7.494-3.354,7.494-7.494S319.198,348.348,315.058,348.348z"/>
<path d="M315.058,376.787H196.93c-4.139,0-7.494,3.354-7.494,7.494s3.354,7.494,7.494,7.494h118.129  c4.139,0,7.494-3.354,7.494-7.494S319.198,376.787,315.058,376.787z"/>
<path d="M147.54,316.629c-12.877,0-23.353,10.476-23.353,23.353c0,12.877,10.476,23.353,23.353,23.353  c12.877,0,23.353-10.476,23.353-23.353C170.893,327.105,160.417,316.629,147.54,316.629z M147.54,348.348  c-4.613,0-8.366-3.753-8.366-8.366s3.753-8.366,8.366-8.366s8.366,3.753,8.366,8.366  C155.906,344.595,152.153,348.348,147.54,348.348z"/>
<path d="M364.447,316.629c-12.877,0-23.353,10.476-23.353,23.353c0,12.877,10.476,23.353,23.353,23.353s23.353-10.476,23.353-23.353  C387.801,327.105,377.323,316.629,364.447,316.629z M364.447,348.348c-4.613,0-8.366-3.753-8.366-8.366s3.753-8.366,8.366-8.366  s8.366,3.753,8.366,8.366C372.813,344.595,369.06,348.348,364.447,348.348z"/>
<path d="M277.602,272.777c0-10.708-8.712-19.419-19.421-19.419c-10.71,0-19.422,8.712-19.422,19.419  c0,10.71,8.713,19.423,19.422,19.423C268.89,292.2,277.602,283.487,277.602,272.777z M253.747,272.777  c0-2.443,1.989-4.431,4.434-4.431c2.444,0,4.433,1.988,4.433,4.431c0,2.445-1.988,4.435-4.433,4.435  C255.736,277.212,253.747,275.223,253.747,272.777z"/>
<path d="M298.836,272.777c0-14.129-7.249-26.592-18.219-33.88l-14.986-136.795c-0.416-3.799-3.625-6.676-7.447-6.677  c-3.821-0.001-7.032,2.874-7.451,6.673l-15.079,136.858c-33.319,22.266-17.569,74.476,22.528,74.476  C280.598,313.433,298.836,295.195,298.836,272.777z M251.422,232.692l6.738-61.156l6.698,61.142  C260.611,231.968,255.89,231.936,251.422,232.692z M232.514,272.777c0-11.172,7.18-20.721,17.242-24.239  c16.567-5.775,34.092,6.572,34.092,24.239c0,14.153-11.513,25.668-25.666,25.668C244.028,298.445,232.514,286.931,232.514,272.777z"/>
<path d="M66.375,184.024C17.016,313.314,111.04,459.059,255.994,459.059c57.266,0,110.431-23.78,148.481-64.625  c2.822-3.028,2.653-7.769-0.375-10.591c-3.029-2.822-7.77-2.654-10.591,0.375c-93.78,100.667-261.587,69.698-312.431-59.397  l19.065-6.617c3.91-1.356,5.979-5.626,4.622-9.536c-1.356-3.911-5.628-5.983-9.536-4.622l-19.069,6.618  c-4.806-15.829-7.584-32.53-8.008-49.808c0.077,0.001,20.212,0.303,20.289,0.303c4.087,0,7.43-3.281,7.491-7.382  c0.063-4.138-3.242-7.543-7.381-7.605l-20.172-0.302c0.935-17.229,4.199-33.848,9.488-49.547  c20.669,7.876,19.701,7.681,21.533,7.681c8.241,0,10.44-11.537,2.67-14.498l-18.847-7.182c6.7-15.616,15.46-30.144,25.932-43.249  c16.42,14.202,16.485,14.966,20.093,14.966c2.1,0,4.188-0.878,5.671-2.592c2.707-3.13,2.364-7.862-0.766-10.57l-15.186-13.134  c11.515-12.279,24.653-23.017,39.074-31.863l9.801,17.576c2.017,3.617,6.583,4.91,10.194,2.895  c3.615-2.015,4.911-6.579,2.896-10.194l-9.813-17.598c14.857-7.555,30.847-13.19,47.641-16.58l3.209,19.933  c0.592,3.683,3.775,6.304,7.39,6.304c4.646,0,8.137-4.153,7.407-8.686l-3.207-19.918c16.381-1.958,33.276-1.832,50.441,0.744  l-3.803,19.821c-0.884,4.603,2.639,8.907,7.367,8.907c3.522,0,6.663-2.496,7.351-6.083l3.804-19.83  c16.662,3.889,32.477,10.002,47.119,18.006l-10.329,17.288c-2.122,3.553-0.963,8.154,2.59,10.276  c3.552,2.122,8.154,0.963,10.276-2.59l10.312-17.26c14.14,9.264,26.959,20.38,38.114,33.004l-15.57,12.672  c-5.478,4.458-2.268,13.306,4.735,13.306c3.442,0,3.371-0.58,20.313-14.368c10.07,13.4,18.394,28.182,24.628,44.01l-19.062,6.616  c-7.984,2.772-5.892,14.575,2.457,14.575c1.682,0,0.586,0.234,21.524-7.034c4.806,15.829,7.584,32.529,8.008,49.807l-20.171-0.302  c-4.116-0.028-7.543,3.243-7.605,7.381c-0.063,4.138,3.242,7.544,7.381,7.605l20.173,0.302c-0.914,17.031-4.097,33.661-9.436,49.567  l-18.919-7.208c-3.867-1.474-8.196,0.468-9.671,4.335c-1.474,3.867,0.468,8.197,4.335,9.671l18.914,7.206  c-5.451,12.724-12.34,24.891-20.62,36.31c-2.429,3.351-1.683,8.036,1.669,10.466c3.351,2.429,8.035,1.684,10.466-1.669  c69.954-96.474,41.577-232.3-60.298-293.148C249.623,15.984,108.736,69.357,66.375,184.024z"/>
<g>
</g>
<g>
</g>
<g>
</g>
<g>
</g>
<g>
</g>
<g>
</g>
<g>
</g>
<g>
</g>
<g>
</g>
<g>
</g>
<g>
</g>
<g>
</g>
<g>
</g>
<g>
</g>
<g>
</g>
</svg>
