<?xml version="1.0" encoding="UTF-8"?>
<!DOCTYPE svg PUBLIC "-//W3C//DTD SVG 1.1//EN" "http://www.w3.org/Graphics/SVG/1.1/DTD/svg11.dtd">
<!-- Creator: CorelDRAW -->
<svg xmlns="http://www.w3.org/2000/svg" xml:space="preserve" width="2048px" height="2048px" style="shape-rendering:geometricPrecision; text-rendering:geometricPrecision; image-rendering:optimizeQuality; fill-rule:evenodd; clip-rule:evenodd"
viewBox="0 0 2048 2048"
 xmlns:xlink="http://www.w3.org/1999/xlink">
 <defs>
  <style type="text/css">
   <![CDATA[
    .fil2 {fill:none}
    .fil0 {fill:#212121;fill-rule:nonzero}
    .fil1 {fill:#66BB6A;fill-rule:nonzero}
   ]]>
  </style>
 </defs>
 <g id="Layer_x0020_1">
  <metadata id="CorelCorpID_0Corel-Layer"/>
  <path class="fil0" d="M479.242 255.999l1089.52 0c13.2543,0 24,10.7457 24,24l0 1488c0,13.2543 -10.7457,24 -24,24l-1089.52 0c-13.2543,0 -24,-10.7457 -24,-24l0 -1488c0,-13.2543 10.7457,-24 24,-24zm1065.52 48l-1041.52 0 0 1440 1041.52 0 0 -1440z"/>
  <g id="_475114440">
   <g>
    <polygon id="_475115472" class="fil1" points="830.218,549.626 1438.22,549.626 1438.22,597.626 830.218,597.626 "/>
    <path id="_475114992" class="fil1" d="M609.784 485.626l128.001 0c13.2543,0 24,10.7457 24,24l0 128.001c0,13.2543 -10.7457,24 -24,24l-128.001 0c-13.2543,0 -24,-10.7457 -24,-24l0 -128.001c0,-13.2543 10.7457,-24 24,-24zm104.001 48l-80.0008 0 0 80.0008 80.0008 0 0 -80.0008z"/>
   </g>
   <g>
    <polygon id="_475115448" class="fil1" points="830.218,1135.67 1438.22,1135.67 1438.22,1183.67 830.218,1183.67 "/>
    <path id="_475115664" class="fil1" d="M609.784 1071.67l128.001 0c13.2543,0 24,10.7457 24,24l0 128.001c0,13.2543 -10.7457,24 -24,24l-128.001 0c-13.2543,0 -24,-10.7457 -24,-24l0 -128.001c0,-13.2543 10.7457,-24 24,-24zm104.001 48l-80.0008 0 0 80.0008 80.0008 0 0 -80.0008z"/>
   </g>
   <g>
    <polygon id="_475114560" class="fil1" points="830.218,1450.37 1438.22,1450.37 1438.22,1498.37 830.218,1498.37 "/>
    <path id="_475114680" class="fil1" d="M609.784 1386.37l128.001 0c13.2543,0 24,10.7457 24,24l0 128.001c0,13.2543 -10.7457,24 -24,24l-128.001 0c-13.2543,0 -24,-10.7457 -24,-24l0 -128.001c0,-13.2543 10.7457,-24 24,-24zm104.001 48l-80.0008 0 0 80.0008 80.0008 0 0 -80.0008z"/>
   </g>
   <g>
    <polygon id="_475114512" class="fil1" points="830.218,842.65 1438.22,842.65 1438.22,890.65 830.218,890.65 "/>
    <polygon id="_475114968" class="fil1" points="626.752,848.64 653.143,875.032 720.814,807.361 754.752,841.299 670.112,925.939 653.143,942.909 636.174,925.939 592.815,882.578 "/>
   </g>
  </g>
 </g>
 <rect class="fil2" width="2048" height="2048"/>
</svg>
